HIERARCHY
ROOT Joint1
{
	OFFSET 0.000000 0.000000 0.000000
	CHANNELS 6 Xposition Yposition Zposition Xrotation Yrotation Zrotation
	JOINT Joint2
	{
		OFFSET -0.000000 0.000000 1.456275
		CHANNELS 6 Xposition Yposition Zposition Xrotation Yrotation Zrotation
		JOINT Joint3
		{
			OFFSET -0.000000 0.000002 1.471446
			CHANNELS 6 Xposition Yposition Zposition Xrotation Yrotation Zrotation
			JOINT Joint4
			{
				OFFSET 0.625745 0.000000 0.917755
				CHANNELS 6 Xposition Yposition Zposition Xrotation Yrotation Zrotation
				JOINT Joint5
				{
					OFFSET -0.629534 0.000001 0.940221
					CHANNELS 6 Xposition Yposition Zposition Xrotation Yrotation Zrotation
					JOINT Joint6
					{
						OFFSET -0.000001 0.113772 1.960660
						CHANNELS 6 Xposition Yposition Zposition Xrotation Yrotation Zrotation
						JOINT Joint7
						{
							OFFSET -0.669733 -0.113771 0.388340
							CHANNELS 6 Xposition Yposition Zposition Xrotation Yrotation Zrotation
							End Site
							{
								OFFSET 0.005509 0.005509 0.438980
							}
						}
					}
				}
			}
		}
	}
}
MOTION
Frames: 12
Frame Time: 0.041667
0.000000 0.000000 0.000000 -0.000000 1.019410 51.928924 -0.000000 -0.000000 1.456275 0.000001 23.888032 0.000002 -0.000000 0.000002 1.471445 -0.000002 -1.133459 -56.771023 0.625745 0.000000 0.917755 0.000009 120.787797 -0.000002 -0.629534 0.000001 0.940221 0.000002 1.709735 58.018817 -0.000001 0.113772 1.960660 -88.303896 72.425967 -0.000008 -0.669733 -0.113771 0.388340 -1.111309 3.482081 158.481057 
0.000000 0.000000 0.000000 -0.000000 1.019410 53.092006 -0.000000 -0.000000 1.456275 -0.000000 25.430591 0.000002 -0.000000 0.000002 1.471446 -0.000001 -1.133467 -58.041684 0.625745 0.000000 0.917755 0.000004 120.468978 -0.000002 -0.629533 0.000001 0.940221 -0.000004 1.709736 59.318683 -0.000001 0.113773 1.960661 -88.303889 72.032807 -0.000005 -0.669733 -0.113771 0.388340 -1.119869 3.478323 159.007542 
0.000000 0.000000 0.000000 -0.000000 1.019410 54.657093 -0.000000 0.000000 1.456275 -0.000001 27.506318 -0.000001 -0.000000 0.000002 1.471445 -0.000003 -1.133466 -59.751533 0.625744 0.000001 0.917755 0.000004 120.039946 -0.000003 -0.629534 0.000001 0.940221 0.000000 1.709736 61.067813 -0.000001 0.113772 1.960661 -88.303889 71.503755 0.000001 -0.669733 -0.113771 0.388340 -1.131335 3.473142 159.716010 
0.000000 0.000000 0.000000 -0.000000 1.019410 56.410368 -0.000000 0.000000 1.456275 -0.000001 29.831633 -0.000001 -0.000000 0.000002 1.471445 -0.000003 -1.133467 -61.666978 0.625745 0.000001 0.917755 0.000003 119.559347 -0.000002 -0.629534 0.000001 0.940220 0.000001 1.709736 63.027278 -0.000001 0.113772 1.960660 -88.303889 70.911099 -0.000017 -0.669733 -0.113771 0.388340 -1.144098 3.467171 160.509664 
0.000000 0.000000 0.000000 -0.000000 1.019410 58.095233 -0.000000 -0.000000 1.456275 -0.000001 32.066222 0.000002 -0.000001 0.000002 1.471446 -0.000003 -1.133467 -63.507686 0.625745 0.000000 0.917755 0.000007 119.097462 -0.000003 -0.629533 0.000001 0.940221 -0.000002 1.709740 64.910279 -0.000001 0.113772 1.960661 -88.303882 70.341571 -0.000009 -0.669733 -0.113771 0.388340 -1.156286 3.461263 161.272337 
0.000000 0.000000 0.000000 -0.000000 1.019410 59.728734 -0.000000 -0.000000 1.456275 -0.000000 34.232676 0.000004 -0.000000 0.000002 1.471446 -0.000002 -1.133464 -65.292278 0.625745 0.000001 0.917755 -0.000000 118.649702 -0.000002 -0.629534 0.000001 0.940221 0.000001 1.709735 66.735873 -0.000001 0.113772 1.960660 -88.303896 69.789391 -0.000002 -0.669733 -0.113771 0.388340 -1.168022 3.455385 162.011746 
0.000000 0.000000 0.000000 -0.000000 1.019410 61.379276 -0.000000 0.000000 1.456275 0.000001 36.421741 -0.000003 -0.000001 0.000002 1.471446 -0.000004 -1.133464 -67.095496 0.625745 0.000000 0.917755 0.000006 118.197243 -0.000002 -0.629534 0.000001 0.940221 -0.000005 1.709736 68.580516 -0.000001 0.113772 1.960660 -88.303896 69.231453 -0.000004 -0.669733 -0.113771 0.388340 -1.179807 3.449293 162.758859 
0.000000 0.000000 0.000000 -0.000000 1.019410 63.047099 -0.000000 0.000000 1.456275 -0.000001 38.633729 -0.000002 -0.000000 0.000002 1.471445 -0.000005 -1.133465 -68.917579 0.625745 0.000000 0.917755 0.000008 117.740058 -0.000003 -0.629534 0.000001 0.940220 0.000001 1.709735 70.444474 -0.000001 0.113771 1.960660 -88.303889 68.667682 -0.000004 -0.669733 -0.113771 0.388340 -1.191634 3.442980 163.513827 
0.000000 0.000000 0.000000 -0.000000 1.019410 64.715161 -0.000000 0.000000 1.456275 -0.000000 40.846027 -0.000001 -0.000000 0.000002 1.471446 -0.000001 -1.133461 -70.739914 0.625745 0.000001 0.917755 -0.000001 117.282817 -0.000002 -0.629533 0.000001 0.940221 -0.000000 1.709737 72.308686 -0.000001 0.113773 1.960661 -88.303889 68.103830 -0.000008 -0.669733 -0.113771 0.388340 -1.203375 3.436510 164.268877 
0.000000 0.000000 0.000000 -0.000000 1.019410 66.365465 -0.000000 0.000000 1.456275 -0.000000 43.034768 -0.000001 -0.000000 0.000002 1.471446 -0.000005 -1.133464 -72.542872 0.625745 0.000001 0.917755 0.000006 116.830440 -0.000002 -0.629534 0.000001 0.940221 0.000002 1.709732 74.153069 -0.000001 0.113772 1.960660 -88.303896 67.545981 -0.000010 -0.669733 -0.113771 0.388340 -1.214908 3.429962 165.015868 
0.000000 0.000000 0.000000 -0.000000 1.019410 67.997798 -0.000000 -0.000000 1.456275 -0.000001 45.199675 -0.000002 -0.000000 0.000002 1.471446 -0.000004 -1.133467 -74.326180 0.625745 0.000001 0.917755 0.000003 116.382981 -0.000004 -0.629534 0.000001 0.940221 -0.000001 1.709735 75.977365 -0.000001 0.113772 1.960661 -88.303882 66.994218 -0.000010 -0.669733 -0.113771 0.388340 -1.226222 3.423340 165.754717 
0.000000 0.000000 0.000000 -0.000000 1.019410 69.683830 -0.000000 -0.000000 1.456275 -0.000003 47.435817 0.000000 -0.000000 0.000002 1.471446 -0.000004 -1.133466 -76.168173 0.625745 0.000000 0.917755 0.000003 115.920796 -0.000002 -0.629534 0.000001 0.940220 -0.000001 1.709736 77.861677 -0.000001 0.113772 1.960661 -88.303889 66.424273 0.000002 -0.669734 -0.113771 0.388340 -1.237833 3.416338 166.517881 
